<svg id="Layer_1" data-name="Layer 1" xmlns="http://www.w3.org/2000/svg" viewBox="0 0 803.31 1152.54"><title>Birb</title><g id="birb"><path d="M928.6,655.84a30.81,30.81,0,0,1-4.7,30.2c15.9-6.9,31.8-13.7,47.7-20.6,2.8,48.6-51.6,85.4-51.8,134-.4,80.8-50.6,151.9-98.6,216.9-38.8,52.5-81.4,107.9-143.3,128.8a133.71,133.71,0,0,0-70.7,56.8c-4.4-13,2.8-28.9,15.5-34.2-82.8,6.1-166.4-3.6-249,5.4-13,1.5-27.3,4-35.8,14-7.1,8.4-16.1,22.6-24.5,15.6a99.92,99.92,0,0,1,31.4-34.8c-81.1-8-153.5-72.2-171-151.8-6.7-30.2-6.1-61.6-3.9-92.5a952.31,952.31,0,0,1,46.9-235c17-50.9,38.7-102,37.4-155.7-.7-28.4-7.9-56.4-9.2-84.8-2.9-62.3,24.3-125.2,71.6-165.8s113.7-57.9,174.8-45.6c24.6,5,41.9-25.8,40.8-51-1.1-24.2-12.4-49.1-33.5-61.2s-51.9-7.4-64.4,13.5c-10.2-28.3,15.5-56.5,41.2-72,12.8-7.8,27.1-14.7,42.1-13.9,27.7,1.6,47.3,29,53.6,56,10.6,45.9-6.7,97-43.1,126.9a297.73,297.73,0,0,1,108,38.6c24.2,14.4,46.7,32.7,61.7,56.6,47.9,76.3,9.1,188.8,67.1,257.8q33.15,39.45,66.4,78.8c3.8,4.6,7.9,9.3,13.4,11.4,6.4,2.4,13.5,1,20.1-.7a399.63,399.63,0,0,0,63.8-21.7m-8.9,16.8A562.87,562.87,0,0,1,770.1,699c-4.9-4.8,4.4-11.2,11.2-11.7l48-3.9a1124.21,1124.21,0,0,0-117.6-128.2c5.6.2,11.2.3,16.9.5q-10.65-76.8-21.2-153.5c-2.6-19.2-5.4-38.7-13.3-56.3-8.6-19.2-23.1-35.3-39.4-48.7a212.8,212.8,0,0,0-89.6-43.4c-16.8-3.6-33.9-5.2-51-6.8l-22.8-2.1c-15-1.4-30.1-2.8-45.2-2.4-52.1,1.3-103.3,24.4-138.7,62.7a197.4,197.4,0,0,0-51.5,143.2c1.9,34.5,12.9,68.4,10.9,102.8-1.7,29.6-12.8,57.7-22.8,85.6A1155.57,1155.57,0,0,0,182.7,909c-5.1,51.1-6.3,105.2,17.1,150.8s69.4,77,118.8,90.8,102,11.7,152.6,3.2c15.2-2.5,31.1-5.6,45.8-.7,26.6,9.1,55.5,9.6,83.3,5.5a256.62,256.62,0,0,0,75-23.4c49.3-24.4,89.5-64.1,124-107A744.86,744.86,0,0,0,907,846.44c6.7-16.2,11.2-38.6-3.4-48.4A727.86,727.86,0,0,1,747.8,959c-17,12.8-37.3,25.4-58,20.7-11.8-2.8-21.6-10.9-30.1-19.5-49.7-49.7-71.7-119.7-92.1-186.9-9.7-31.9-18.9-68.2-2.1-97a527.45,527.45,0,0,0,76.1,242.3c9.5,15.5,20.2,31,35.6,40.6s36.7,12.2,51.5,1.6a724.43,724.43,0,0,0,232.1-278.9,135.83,135.83,0,0,1-56.3,16.8,45.93,45.93,0,0,1,15.2-26.1M455.1,94.34c-5.3,5.2-10.5,11.7-9.9,19.1a67,67,0,0,1,89.1,36.3c7.7,19.1,6.2,40.4,4.4,60.9,27-32.6,32.9-81.1,14.7-119.3-7.3-15.5-20.8-30.5-38-30.4-6.4.1-12.7,2.4-18.5,5a142.54,142.54,0,0,0-41.8,28.4" transform="translate(-168.39 -52.08)"/><path d="M464.6,782.24c0,1.8.1,3.7.2,5.5a2,2,0,0,1-2.4.2c-2.6-1.3-1-6.3,1.9-5.8" transform="translate(-168.39 -52.08)"/><path d="M294.8,783.74c-.5,1.2-1,2.3-1.5,3.5a3.12,3.12,0,0,1-2.5-.5,7.78,7.78,0,0,1,.2-4c.6-1.2,2.1-2.1,3.3-1.4l.6,2.4" transform="translate(-168.39 -52.08)"/><path d="M290.3,869.24c1.3-.9,2.9,1.4,2.1,2.8s-2.7,1.8-4.3,2a3.5,3.5,0,0,1,2.2-4.5" transform="translate(-168.39 -52.08)"/><path d="M371,1130.14c1-1.2,3.1.5,2.8,2.1s-2.1,2.4-3.5,3a3.76,3.76,0,0,1,.9-5" transform="translate(-168.39 -52.08)"/><path d="M543.6,958.74c.2-.9.3-1.8.5-2.7a4,4,0,0,1,4,3.7,3.77,3.77,0,0,1-4.1,3.6c-.1-1.5-.2-3.1-.4-4.6" transform="translate(-168.39 -52.08)"/><path d="M542.5,1128.34c.7-.7,2.1.3,1.7,1.2,2.2,1.4.4,5.6-2.1,5s-2.2-5.2.3-5.6" transform="translate(-168.39 -52.08)"/><path d="M202.3,961.34a3.78,3.78,0,0,1-2.9-4.3,3.63,3.63,0,0,1,4.3-2.6,9.3,9.3,0,0,1-1.2,6.9" transform="translate(-168.39 -52.08)"/><path d="M461.3,876.14c-2.4-1.5-1.9-6,.8-7,2.5,1.7,2,6.1-.7,7.3" transform="translate(-168.39 -52.08)"/><path d="M548.4,873.14c1.1.9-.2,3-1.6,2.9s-2.4-1.8-2.5-3.2.9-3.1,2.4-3.3,2.8,1.8,1.7,2.8" transform="translate(-168.39 -52.08)"/><path d="M373.8,956.74a2.26,2.26,0,0,1,2.9,0,8.92,8.92,0,0,1-1.6,6.7,4.24,4.24,0,0,1-1.3-6.7" transform="translate(-168.39 -52.08)"/><path d="M627.8,957.74a3.46,3.46,0,0,1,3.5-1.5,12.26,12.26,0,0,1,0,7.1,4.63,4.63,0,0,1-3.5-5.6" transform="translate(-168.39 -52.08)"/><path d="M288.5,1044.84a3.22,3.22,0,0,1-2.3,4.5,6,6,0,0,1-1.4-5.5c.8-.6,1.6-1.1,2.4-1.6.5.9,1,1.7,1.5,2.5" transform="translate(-168.39 -52.08)"/><path d="M459,961.54c-1.6-1.5.1-4.8,2.2-4.3,1,1.3,1.9,3.2,1.2,4.7s-3.7,1.5-3.7-.2" transform="translate(-168.39 -52.08)"/><path d="M291.2,959.24a4.37,4.37,0,0,1-4.9,1.9l-1.5-2.4a4.38,4.38,0,0,1,6.9.3" transform="translate(-168.39 -52.08)"/><path d="M201.8,870.74l2.4-3.6a6.43,6.43,0,0,1,1.8,3.8,2.87,2.87,0,0,1-2.4,3.1c-1.4,0-2.5-2-1.5-3" transform="translate(-168.39 -52.08)"/><path d="M545.7,782.54l2.5-.3a5.21,5.21,0,0,1,0,7c-2.9.7-3.9-4-2.3-6.4" transform="translate(-168.39 -52.08)"/><path d="M460.9,1048.74a1.82,1.82,0,0,1-2.6,1.4c-1-1.4-1.9-3.1-1.6-4.8s2.8-2.9,3.9-1.6a6.66,6.66,0,0,1,.1,5" transform="translate(-168.39 -52.08)"/><path d="M378.1,788.44c-3.1-1.3-2.1-7.1,1.3-7.2a4.47,4.47,0,0,1-1.3,6.8" transform="translate(-168.39 -52.08)"/><path d="M542.9,1048.64c-.5-2.5-.3-6.2,2.3-6.4,2.8,2,.9,7.6-2.6,7.5" transform="translate(-168.39 -52.08)"/><path d="M371.7,1044.74c-.2-1.3,1.6-1.9,2.9-1.9a7.58,7.58,0,0,1-.4,6.4c-2.3.6-4.5-3.2-2.4-4.5" transform="translate(-168.39 -52.08)"/><path d="M374.4,871.54c.6-.8,1.1-1.5,1.7-2.3.8.5,1.6,1,2.5,1.5a7.1,7.1,0,0,1-3,5.7,3.91,3.91,0,0,1-1.2-4.8" transform="translate(-168.39 -52.08)"/><path d="M281.7,1133.94a5.4,5.4,0,0,1,5.9-4.4c-.6,1.9-1.3,3.8-1.9,5.7l-3-1.5" transform="translate(-168.39 -52.08)"/><path d="M456.4,1137.14a7.31,7.31,0,0,1,1.4-9c3,2.3,2.2,8-1.5,9.3" transform="translate(-168.39 -52.08)"/><path d="M755.7,960.64a16.52,16.52,0,0,1-7.2,3.4,22.86,22.86,0,0,1,7.8-6.7,2.43,2.43,0,0,1-.6,3.4" transform="translate(-168.39 -52.08)"/><path d="M315,476.94a8.39,8.39,0,0,1,2.5-4.5c2.6-2.2,7.1-.6,8.5,2.5s.2,7-2,9.6c-2,2.2-5.5,3.8-8,2.1-2.9-2-2.1-6.4-1-9.7" transform="translate(-168.39 -52.08)"/><path d="M337.6,484l2.4-4.8c1.4-3,6.3-2.3,7.9.5s.9,6.5-.5,9.5c-1.7,3.8-6.3,7.7-9.7,5.2-3.1-2.2-1.7-7-.1-10.4" transform="translate(-168.39 -52.08)"/><path d="M303.4,465.44c2.9.9,3.9,4.6,3.2,7.6s-2.7,5.4-3.8,8.2c-1.2,3.1-6.4,2.4-8-.5s-.6-6.7.8-9.8,4.5-6.5,7.8-5.5" transform="translate(-168.39 -52.08)"/><path d="M482,487.34c-1.9,1.7-5.1.6-6.4-1.5s-.8-5,.1-7.3,2.4-4.4,3.3-6.7c1.2-3,5.9-3.3,8.1-1s2.3,6.1,1,9.1-3.8,5.2-6.1,7.4" transform="translate(-168.39 -52.08)"/><path d="M539,482.44c-2.2,4.6-4.3,9.1-6.5,13.7-1.5,3.2-7,1.8-8.2-1.5s.1-6.9,1.6-10.2,3.1-6.7,6.3-8.2,8.1.7,7.5,4.2a8,8,0,0,1-.7,2" transform="translate(-168.39 -52.08)"/><path d="M499.4,482.64c1.8-4.6,3.8-9.2,5.8-13.7,1.4-3.1,6.6-1.8,7.8,1.3s.1,6.5-1.2,9.6c-.9,2.3-1.8,4.5-2.7,6.7-1.5,3.6-4.6,8-8.2,6.6s-3-6.8-1.5-10.5" transform="translate(-168.39 -52.08)"/><path d="M804.8,885.74A516.66,516.66,0,0,1,762.7,926c-1.4,1.2-4.1,1.9-4.4.2,14.5-14.8,29.7-29,45.6-42.4.3.6.6,1.3.9,1.9" transform="translate(-168.39 -52.08)"/><path d="M519.6,406.94c-2.5,4.5-5.7,9.2-10.6,11.1s-11.5-.3-12.6-5.4A83.58,83.58,0,0,1,513.6,344c2.1-2.5,4.5-5,7.7-5.3,3.5-.5,6.9,2,8.6,5s2,6.7,2.2,10.2a103,103,0,0,1-12.5,53m-8.9-26.1c1.3-5.8,2.5-11.6,3.7-17.3.3-1.4,0-3.5-1.4-3.3a41.32,41.32,0,0,0-2.3,20.6" transform="translate(-168.39 -52.08)"/><path d="M364.8,407.44c-1.3,5-3.3,10.4-7.9,12.5-5,2.2-11.2-.7-14.2-5.3s-3.6-10.4-3.7-15.9a140.75,140.75,0,0,1,1.5-25.9c1.8-11.5,5.1-23.2,12.7-32.1,2.9-3.4,7.1-6.4,11.4-5.6,3.3.7,5.8,3.5,7,6.7a27.45,27.45,0,0,1,1.1,9.9,227.61,227.61,0,0,1-7.9,55.7M347,378.94c.7.2.6-1.3-.2-1.3s-1.1.9-1.3,1.6a16.65,16.65,0,0,0-.3,8.3,7.83,7.83,0,0,0,2.1-8.3m-1.1,12.9a9,9,0,0,0-2.1,6,11.3,11.3,0,0,0,5.9-5.5h-3.8" transform="translate(-168.39 -52.08)"/><path d="M426.7,449c2,.6,3.3,2.4,4.5,4.1,2.8,4.2,5.8,8.5,7,13.5,1.5,5.9.4,12.2-1.4,18-4.6,14.7-13.4,28-16.5,43.1-.6,2.9-1.5,6.4-4.3,7.3-3.6,1.2-6.6-2.8-8.1-6.3a111.83,111.83,0,0,1-7.9-58c.4-3,2.9-5.3,5.3-7.3,4.5-3.7,9-7.5,13.5-11.3,2.3-1.9,5.1-3.9,7.9-3.1m-18.3,28.3c-.6,3.4-.1,6.9.3,10.4,1.2,9.2,2.4,18.5,3.6,27.8a3,3,0,0,0,1.2,2.5c1.8,1,3.2-2.1,3.3-4.3.7-9,5.7-17.1,9.2-25.5s5.4-18.7.2-26.2c-8.5.1-16.5,6.9-17.8,15.3" transform="translate(-168.39 -52.08)"/><path d="M301.5,612.24c-4-11.9-8.1-23.8-12.1-35.6-.6-1.7-1.1-3.5-.5-5.1.9-2.6,4.5-3.4,7-2.2s4.3,3.4,5.9,5.7a705.63,705.63,0,0,0,76,88.8c1.2-3.6,6.5-1.2,10.3-.9a14.1,14.1,0,0,0,6.9-1.7q76.5-31.95,153.1-63.9c9.1-3.8,18.6-7.7,28.5-7.3,1.8.1,3.8.4,5.1,1.8,2.8,3.1-1,7.8-4.4,10.3A1459.71,1459.71,0,0,1,409.1,706c-5.8,3-12.3,6.1-18.5,4.3s-10.1-7.5-14.3-12.3c-10.7-12.3-25.6-19.9-38.3-30.1-14.8-11.9-26.4-27.2-37.9-42.4-1.7-2.3-3.5-4.8-3.7-7.7s2.3-6.1,5.1-5.6m116.9,76.3c-2.3,1.9-5.8,1.6-8.4.1s-4.4-3.9-6.2-6.3a7.18,7.18,0,0,1-11.8,7.6c-2.5-2.5-3-6.8-6-8.8a14.84,14.84,0,0,1-4.2,7c2.8,3.4,5.7,6.8,8.5,10.1.8,1,1.9,2.1,3.2,1.9,22.9-4.3,40.8-21.8,62-31.7a16.16,16.16,0,0,1-11.6-6.3c-.9,4.9-2.1,10.3-5.9,13.5s-11.2,2.2-12.2-2.7c-1.5,3.7-3,7.3-4.6,11a11.43,11.43,0,0,1-2.8,4.6m-108.9-85.2c4.4,11.3,9.2,22.3,14.5,33.2.6-4,2.7-9.3,6.7-8.7-7.2-8-14.3-16.2-21.2-24.5m111.2,58.1a50.37,50.37,0,0,0-15.7,7c2.7,2.7,5.5,5.3,8.2,8l7.5-15m107.2-42.5a41,41,0,0,0,7.9-1.6c4.4-1.6,8.1-4.8,11.7-7.8a160.16,160.16,0,0,0-27.8,10.4c2.7-.3,5.5-.7,8.2-1m-67.2,46.4c4.4-2.1,8.8-4.3,13-6.8a11.13,11.13,0,0,1-10.5-6.4,42.85,42.85,0,0,1-2.5,13.2m44-31.1a54.15,54.15,0,0,0,3.8-8.9,20.27,20.27,0,0,0-10.8,4.4,24.37,24.37,0,0,1,6.1,3.9m-14.1-.1c-3,1.1-5.9,2.2-8.8,3.3,1.8,2.4,3.6,4.9,5.4,7.4a44.47,44.47,0,0,1,3.4-10.7m-55.5,25.7c.9-1.6,1.7-3.1,2.5-4.7a16.33,16.33,0,0,0-7.9,3.3,11.37,11.37,0,0,1,4.5,5.4c.3-1.3.6-2.7,1-4m16.2-8a4.63,4.63,0,0,0,1.8,4,17.72,17.72,0,0,0,.4-6.5,2.41,2.41,0,0,0-3,0c.1.8.2,1.7.3,2.5" transform="translate(-168.39 -52.08)"/></g></svg>